# xmcd
#
# Track frame offsets:
#	150
#	15262
#	35060
#	50705
#	72130
#	88250
#	101582
#	117445
#	129795
#	140552
#	154335
#	172395
#	187695
#	200837
#	216377
#	232040
#	248787
#
# Disc length: 3924 seconds
#
# Revision: 0
# Processed by: cddbd v1.5.2PL0 Copyright (c) Steve Scherf et al.
# Submitted via: VUPlayer 2.49
#
DISCID=fd0f5211
DTITLE=Various Artist - Hollandse Gouwe 10
DYEAR=2003
DGENRE=Folk
TTITLE0=Zangeres Zonder Naam - Vragende kinderogen
TTITLE1=Gerard Schoonebeek - De lafaard van de stad
TTITLE2=Corry Konings - Het is allemaal gelogen
TTITLE3=Nico Haak - Vogeltje wat zing je vroeg
TTITLE4=Bonnie St. Claire - Morgen wordt alles anders
TTITLE5=Stella - Van mij geen tranen meer
TTITLE6=Dennie, Mieke en Micha - Echte vrienden blijven vrienden
TTITLE7=Palemiger Spatzen - Het is weer harmonicatijd
TTITLE8=Andy  - Ik mis je
TTITLE9=Sugar Lee Hooper - Oh wat ben je mooi
TTITLE10=Arne Jansen - Bahia Blanca
TTITLE11=Drukwerk - Je loog tegen mij
TTITLE12=Jan Boezeroen - Vondel was goed
TTITLE13=Freddy Breck - De avond is nog jong
TTITLE14=Marianne Weber - Schrijf me nooit geen mooie brieven meer
TTITLE15=Dennie en Mieke - Kom maar in m'n armen schat
TTITLE16=De Deurzakkers - Wij vieren feest
EXTD=
EXTT0=
EXTT1=
EXTT2=
EXTT3=
EXTT4=
EXTT5=
EXTT6=
EXTT7=
EXTT8=
EXTT9=
EXTT10=
EXTT11=
EXTT12=
EXTT13=
EXTT14=
EXTT15=
EXTT16=
PLAYORDER=
